<svg xmlns="http://www.w3.org/2000/svg" width="144" height="144" viewBox="0 0 144 144"><g id="image" fill="none" fill-rule="evenodd" stroke="none" stroke-width="1"><path id="Oval" fill="#FFF" fill-rule="nonzero" d="M72,15.4285714 C104.663698,15.4285714 131.142857,41.9077305 131.142857,74.5714286 C131.142857,107.235127 104.663698,133.714286 72,133.714286 C39.3363019,133.714286 12.8571429,107.235127 12.8571429,74.5714286 C12.8571429,41.9077305 39.3363019,15.4285714 72,15.4285714 Z M72,25.7142857 C45.0169451,25.7142857 23.1428571,47.5883737 23.1428571,74.5714286 C23.1428571,101.554483 45.0169451,123.428571 72,123.428571 C98.9830549,123.428571 120.857143,101.554483 120.857143,74.5714286 C120.857143,47.5883737 98.9830549,25.7142857 72,25.7142857 Z"/><path id="code" fill="#FFF" fill-rule="nonzero" d="M52.2535722,86.9758656 C52.50402,87.4430394 52.7169007,87.884259 52.8922142,88.2995246 C53.0675277,88.7147902 53.1551844,89.1300558 53.1551844,89.5453214 C53.1551844,90.4277608 52.8296022,91.1674526 52.1784378,91.7643969 C51.5272735,92.3613412 50.6757508,92.6598133 49.6238699,92.6598133 C48.922616,92.6598133 48.2464068,92.5300428 47.5952424,92.2705018 C46.4431824,91.4399706 45.2034656,90.492646 43.8760921,89.4285279 C42.5487185,88.3644099 41.1837778,87.2873148 39.78127,86.1972426 C38.0281351,84.8476294 36.2374331,83.4720622 34.4091639,82.0705408 C32.5808947,80.6690194 30.9655061,79.4491768 29.5629982,78.4110128 C28.7114756,77.5285734 28.2857143,76.6720882 28.2857143,75.841557 C28.2857143,74.7514848 28.8617443,73.765229 30.0138044,72.8827897 L29.93867,72.8827897 C30.1390283,72.7270651 30.6900135,72.2858454 31.5916257,71.5591306 C32.4932379,70.8324158 33.5451188,69.9759305 34.7472685,68.9896748 C35.9494181,68.003419 37.2392244,66.952278 38.6166875,65.8362517 C39.9941506,64.7202254 41.283957,63.6690844 42.4861066,62.6828286 C43.6882562,61.6965729 44.7276147,60.8530646 45.6041821,60.152304 C46.4807496,59.4515433 47.0442572,59.0233006 47.294705,58.8675761 C48.0961381,58.5561269 48.7723473,58.4004023 49.3233325,58.4004023 C50.3752134,58.4004023 51.2267361,58.7118515 51.8779004,59.3347498 C52.5290648,59.9576482 52.854647,60.7103171 52.854647,61.5927565 C52.854647,62.6309204 52.5541096,63.4874057 51.9530348,64.1622123 C51.1015121,64.8889271 49.9995417,65.7973206 48.6471233,66.8873927 C47.294705,67.9774649 45.9172419,69.0675371 44.5147341,70.1576092 C43.2124053,71.1957732 41.9351213,72.2209601 40.6828822,73.23317 C39.430643,74.2453799 38.4038069,75.0888881 37.6023738,75.7636947 L52.1033035,86.8980033 L52.2535722,86.9758656 Z M84.7706583,54.4974783 L84.8819018,54.5640367 C86.5468798,55.5602138 87.1195767,57.6987251 86.1752854,59.3936689 L67.2604319,93.3446468 C66.3191702,95.0341526 64.1865117,95.6407243 62.4970059,94.6994626 C62.465514,94.6819178 62.4342949,94.6638877 62.4033598,94.6453788 L62.2921162,94.5788204 C60.6271382,93.5826433 60.0544413,91.444132 60.9987326,89.7491882 L79.9135861,55.7982104 C80.8548478,54.1087045 82.9875063,53.5021328 84.6770122,54.4433945 C84.7085041,54.4609394 84.7397231,54.4789695 84.7706583,54.4974783 Z M106.322492,75.7636947 L99.4852659,70.1576092 C98.1328476,69.0675371 96.7679069,67.9644878 95.3904438,66.8484616 C94.0129807,65.7324353 92.9235326,64.8110648 92.1220996,64.08435 C91.4709352,63.3576352 91.145353,62.527104 91.145353,61.5927565 C91.145353,60.7103171 91.4834576,59.9576482 92.1596667,59.3347498 C92.8358759,58.7118515 93.6748761,58.4004023 94.6766675,58.4004023 C95.2276527,58.4004023 95.8788171,58.5301728 96.6301606,58.7897138 C96.930698,58.9454383 97.6569967,59.4904744 98.8090568,60.424822 C99.9611168,61.3591696 101.28849,62.4232877 102.791177,63.6171762 C104.293864,64.8110648 105.834119,66.0698386 107.41194,67.3934977 C108.989761,68.7171567 110.354702,69.84616 111.506762,70.7805076 L114.136464,72.8827897 L114.06133,72.8827897 C115.1633,73.8171372 115.714286,74.803393 115.714286,75.841557 C115.714286,76.6720882 115.338614,77.5026193 114.58727,78.3331505 L105.721417,85.1850327 L96.4798919,92.1926395 C95.778638,92.5040887 95.077384,92.6598133 94.3761301,92.6598133 C93.3743387,92.6598133 92.5353385,92.3613412 91.8591293,91.7643969 C91.1829202,91.1674526 90.8448156,90.4277608 90.8448156,89.5453214 C90.8448156,88.7666984 91.145353,87.9361672 91.7464278,87.0537279 L106.322492,75.7636947 Z" opacity=".5"/><g id="Action" fill="#FFF" fill-rule="nonzero" transform="translate(32.267 61.525)"><path id="Shape" d="M0,21.4746094 L8.24707031,0 L11.3085938,0 L20.0976562,21.4746094 L16.8603516,21.4746094 L14.3554688,14.9707031 L5.37597656,14.9707031 L3.01757812,21.4746094 L0,21.4746094 Z M6.19628906,12.65625 L13.4765625,12.65625 L11.2353516,6.70898438 C10.5517578,4.90234375 10.0439453,3.41796875 9.71191406,2.25585938 C9.43847656,3.6328125 9.05273438,5 8.5546875,6.35742188 L6.19628906,12.65625 Z"/><path id="Path" d="M32.1826172,15.7763672 L34.7753906,16.1132812 C34.4921875,17.9003906 33.7670898,19.2993164 32.6000977,20.3100586 C31.4331055,21.3208008 30,21.8261719 28.3007812,21.8261719 C26.171875,21.8261719 24.4604492,21.1303711 23.1665039,19.7387695 C21.8725586,18.347168 21.2255859,16.3525391 21.2255859,13.7548828 C21.2255859,12.0751953 21.5039062,10.6054688 22.0605469,9.34570312 C22.6171875,8.0859375 23.4643555,7.14111328 24.6020508,6.51123047 C25.7397461,5.88134766 26.9775391,5.56640625 28.3154297,5.56640625 C30.0048828,5.56640625 31.3867188,5.99365234 32.4609375,6.84814453 C33.5351562,7.70263672 34.2236328,8.91601562 34.5263672,10.4882812 L31.9628906,10.8837891 C31.71875,9.83886719 31.2866211,9.05273438 30.6665039,8.52539062 C30.0463867,7.99804688 29.296875,7.734375 28.4179688,7.734375 C27.0898438,7.734375 26.0107422,8.21044922 25.1806641,9.16259766 C24.3505859,10.1147461 23.9355469,11.6210938 23.9355469,13.6816406 C23.9355469,15.7714844 24.3359375,17.2900391 25.1367188,18.2373047 C25.9375,19.1845703 26.9824219,19.6582031 28.2714844,19.6582031 C29.3066406,19.6582031 30.1708984,19.3408203 30.8642578,18.7060547 C31.5576172,18.0712891 31.9970703,17.0947266 32.1826172,15.7763672 Z"/><path d="M42.7880859 19.1162109 43.1689453 21.4453125C42.4267578 21.6015625 41.7626953 21.6796875 41.1767578 21.6796875 40.2197266 21.6796875 39.4775391 21.5283203 38.9501953 21.2255859 38.4228516 20.9228516 38.0517578 20.5249023 37.8369141 20.0317383 37.6220703 19.5385742 37.5146484 18.5009766 37.5146484 16.9189453L37.5146484 7.96875 35.5810547 7.96875 35.5810547 5.91796875 37.5146484 5.91796875 37.5146484 2.06542969 40.1367188.483398438 40.1367188 5.91796875 42.7880859 5.91796875 42.7880859 7.96875 40.1367188 7.96875 40.1367188 17.0654297C40.1367188 17.8173828 40.1831055 18.3007812 40.2758789 18.515625 40.3686523 18.7304688 40.5200195 18.9013672 40.7299805 19.0283203 40.9399414 19.1552734 41.2402344 19.21875 41.6308594 19.21875 41.9238281 19.21875 42.3095703 19.1845703 42.7880859 19.1162109ZM45.3808594 3.03222656 45.3808594 0 48.0175781 0 48.0175781 3.03222656 45.3808594 3.03222656ZM45.3808594 21.4746094 45.3808594 5.91796875 48.0175781 5.91796875 48.0175781 21.4746094 45.3808594 21.4746094ZM51.0498047 13.6962891C51.0498047 10.8154297 51.8505859 8.68164062 53.4521484 7.29492188 54.7900391 6.14257812 56.4208984 5.56640625 58.3447266 5.56640625 60.4833984 5.56640625 62.2314453 6.26708984 63.5888672 7.66845703 64.9462891 9.06982422 65.625 11.0058594 65.625 13.4765625 65.625 15.4785156 65.324707 17.0532227 64.7241211 18.2006836 64.1235352 19.3481445 63.2495117 20.2392578 62.1020508 20.8740234 60.9545898 21.5087891 59.7021484 21.8261719 58.3447266 21.8261719 56.1669922 21.8261719 54.4067383 21.1279297 53.0639648 19.7314453 51.7211914 18.3349609 51.0498047 16.3232422 51.0498047 13.6962891ZM53.7597656 13.6962891C53.7597656 15.6884766 54.1943359 17.1801758 55.0634766 18.1713867 55.9326172 19.1625977 57.0263672 19.6582031 58.3447266 19.6582031 59.6533203 19.6582031 60.7421875 19.1601562 61.6113281 18.1640625 62.4804688 17.1679688 62.9150391 15.6494141 62.9150391 13.6083984 62.9150391 11.6845703 62.4780273 10.2270508 61.6040039 9.23583984 60.7299805 8.24462891 59.6435547 7.74902344 58.3447266 7.74902344 57.0263672 7.74902344 55.9326172 8.2421875 55.0634766 9.22851562 54.1943359 10.2148438 53.7597656 11.7041016 53.7597656 13.6962891ZM68.7158203 21.4746094 68.7158203 5.91796875 71.0888672 5.91796875 71.0888672 8.12988281C72.2314453 6.42089844 73.8818359 5.56640625 76.0400391 5.56640625 76.9775391 5.56640625 77.8393555 5.73486328 78.6254883 6.07177734 79.4116211 6.40869141 80 6.85058594 80.390625 7.39746094 80.78125 7.94433594 81.0546875 8.59375 81.2109375 9.34570312 81.3085938 9.83398438 81.3574219 10.6884766 81.3574219 11.9091797L81.3574219 21.4746094 78.7207031 21.4746094 78.7207031 12.0117188C78.7207031 10.9375 78.6181641 10.1342773 78.4130859 9.60205078 78.2080078 9.06982422 77.8442383 8.64501953 77.3217773 8.32763672 76.7993164 8.01025391 76.1865234 7.8515625 75.4833984 7.8515625 74.3603516 7.8515625 73.3911133 8.20800781 72.5756836 8.92089844 71.7602539 9.63378906 71.3525391 10.9863281 71.3525391 12.9785156L71.3525391 21.4746094 68.7158203 21.4746094Z"/></g></g></svg>